<?xml version="1.0" ?><svg xmlns="http://www.w3.org/2000/svg" width="64" height="64" viewBox="0 0 64 64" fill="none"><path d="M31.9199 29C31.9199 29 31.9199 40 19.9199 50C19.8699 50.04 19.9799 49.98 19.9199 49.98C12.0999 48.9 11.9199 42 11.9199 42C11.9199 42 21.9199 35 21.9199 24L31.9199 29Z" fill="#DE1C85"/><path d="M31.9199 29C31.9199 29 31.9199 40 43.9199 50C43.9699 50.04 43.8599 49.98 43.9199 49.98C51.7399 48.9 51.9199 42 51.9199 42C51.9199 42 41.9199 35 41.9199 24L31.9199 29Z" fill="#DE1C85"/><path d="M19.9099 51.0099C19.7699 51.0099 19.6199 50.9799 19.4899 50.9199C11.2099 49.6099 10.9199 42.0999 10.9199 42.0199C10.9199 41.6899 11.0699 41.3699 11.3499 41.1699C11.4499 41.0999 20.9199 34.3199 20.9199 23.9899C20.9199 23.6399 21.0999 23.3199 21.3899 23.1399C21.6899 22.9599 22.0499 22.9399 22.3599 23.0999L32.3599 28.0999C32.6999 28.2699 32.9099 28.6199 32.9099 28.9899C32.9099 29.4599 32.7699 40.5399 20.6099 50.7099C20.4899 50.8299 20.3399 50.9199 20.1699 50.9699C20.0799 50.9999 19.9899 51.0099 19.8999 51.0099H19.9099ZM12.9699 42.4599C13.1799 43.8899 14.2399 47.9799 19.6499 48.9199C29.2099 40.7599 30.6599 31.9399 30.8799 29.5999L22.8499 25.5899C22.0899 34.8199 14.9199 40.9599 12.9599 42.4699L12.9699 42.4599Z" fill="#2E1051"/><path d="M43.9299 51.0101C43.8399 51.0101 43.7499 51.0001 43.6599 50.9701C43.4899 50.9201 43.3399 50.8301 43.2199 50.7101C31.0599 40.5401 30.9199 29.4601 30.9199 28.9901C30.9199 28.6101 31.1299 28.2601 31.4699 28.1001L41.4699 23.1001C41.7799 22.9501 42.1499 22.9601 42.4399 23.1401C42.7299 23.3201 42.9099 23.6401 42.9099 23.9901C42.9099 34.3501 52.3899 41.1001 52.4799 41.1701C52.7599 41.3601 52.9199 41.6801 52.9099 42.0201C52.9099 42.1001 52.6099 49.6001 44.3399 50.9201C44.2099 50.9801 44.0699 51.0101 43.9199 51.0101H43.9299ZM32.9599 29.5901C33.1799 31.9401 34.6299 40.7501 44.1899 48.9101C49.5999 47.9701 50.6599 43.8901 50.8699 42.4501C48.9199 40.9401 41.7399 34.8001 40.9799 25.5701L32.9499 29.5801L32.9599 29.5901Z" fill="#2E1051"/><path d="M23.87 37.24C23.69 37.24 23.51 37.19 23.35 37.09C22.88 36.8 22.74 36.18 23.02 35.71C23.04 35.67 25.44 31.73 26.22 26.49C26.3 25.94 26.81 25.57 27.36 25.65C27.91 25.73 28.28 26.24 28.2 26.79C27.36 32.45 24.83 36.59 24.72 36.76C24.53 37.07 24.2 37.23 23.87 37.23V37.24Z" fill="#2E1051"/><path d="M39.96 37.2401C39.63 37.2401 39.3 37.0701 39.11 36.7701C39 36.6001 36.47 32.4601 35.63 26.8001C35.55 26.2501 35.93 25.7501 36.47 25.6601C37.02 25.5801 37.52 25.9601 37.61 26.5001C38.39 31.7401 40.79 35.6801 40.81 35.7201C41.1 36.1901 40.95 36.8101 40.48 37.1001C40.32 37.2001 40.13 37.2501 39.96 37.2501V37.2401Z" fill="#2E1051"/><g opacity="0.3"><path d="M31.9201 29L21.9201 24C21.9201 29.39 19.5201 33.81 17.0701 36.93C21.1101 36.71 26.5701 35.71 31.6501 31.37C31.9201 29.88 31.9201 29 31.9201 29Z" fill="#2E1051"/></g><path d="M28.92 26V22C28.92 20.93 29.49 19.99 30.34 19.46C24.47 14.02 17.79 14 13.92 14C10.05 14 4.92 16 7.92 20C7.92 20 9.92 22 9.92 24C9.92 26 7.92 28 7.92 28C4.92 32 9.92 34 13.92 34C17.92 34 24.47 33.98 30.34 28.54C29.49 28.01 28.92 27.07 28.92 26Z" fill="#DE1C85"/><g opacity="0.3"><path d="M13.9201 17C17.5001 17 23.4901 17.02 29.0101 21.33C29.1901 20.54 29.6701 19.87 30.3401 19.45C24.4701 14.02 17.7901 14 13.9201 14C10.0501 14 5.51007 15.77 7.47007 19.31C8.57007 17.77 11.4401 17 13.9201 17Z" fill="white"/></g><path d="M28.9199 26V29C28.9199 29.23 28.9599 29.45 29.0099 29.67C29.4599 29.32 29.8999 28.95 30.3399 28.55C29.4899 28.02 28.9199 27.08 28.9199 26.01V26Z" fill="white"/><path d="M18.9199 29C14.9199 29 12.9199 30.27 12.9199 30.27C11.9599 30.82 11.6399 32.05 12.1899 33C12.7399 33.96 14.9199 34 14.9199 34C18.8699 33.96 24.9499 33.55 30.3399 28.54C25.9199 30 22.9199 29 18.9199 29Z" fill="#592C87"/><g opacity="0.3"><path d="M12.1899 33C12.3599 32.7 12.5999 32.44 12.9199 32.26C12.9199 32.26 14.9199 30.99 18.9199 30.99C21.6799 30.99 23.9699 31.47 26.5699 31.28C27.8399 30.57 29.1099 29.67 30.3399 28.53C25.9199 29.99 22.9199 28.99 18.9199 28.99C14.9199 28.99 12.9199 30.26 12.9199 30.26C11.9599 30.81 11.6399 32.04 12.1899 32.99V33Z" fill="#2E1051"/></g><path d="M28.9199 23C28.9199 24.1 24.0199 25 22.9199 25C21.8199 25 20.9199 24.1 20.9199 23C20.9199 21.9 21.8199 21 22.9199 21C24.0199 21 28.9199 21.9 28.9199 23Z" fill="#DE1C85"/><g opacity="0.3"><path d="M41.9199 24L31.9199 29C31.9199 29 31.9199 29.88 32.1899 31.37C37.2599 35.71 42.7199 36.7 46.7699 36.93C44.3199 33.81 41.9199 29.39 41.9199 24Z" fill="#2E1051"/></g><path d="M34.92 26V22C34.92 20.93 34.35 19.99 33.5 19.46C39.36 14.02 46.04 14 49.92 14C53.8 14 58.92 16 55.92 20C55.92 20 53.92 22 53.92 24C53.92 26 55.92 28 55.92 28C58.92 32 53.92 34 49.92 34C45.92 34 39.37 33.98 33.5 28.54C34.35 28.01 34.92 27.07 34.92 26Z" fill="#DE1C85"/><g opacity="0.3"><path d="M34.83 21.33C40.35 17.02 46.34 17 49.92 17C52.4 17 55.26 17.77 56.37 19.31C58.33 15.77 53.69 14 49.92 14C46.15 14 39.37 14.02 33.5 19.46C34.17 19.88 34.65 20.55 34.83 21.34V21.33Z" fill="white"/></g><path d="M34.92 29V26C34.92 27.07 34.35 28.01 33.5 28.54C33.94 28.95 34.38 29.32 34.83 29.66C34.88 29.45 34.92 29.23 34.92 28.99V29Z" fill="#DE1C85"/><path d="M13.92 35C10.96 35 7.46999 34 6.35999 31.78C5.89999 30.86 5.65999 29.35 7.11999 27.4C7.14999 27.36 7.17999 27.33 7.20999 27.29C7.68999 26.81 8.91999 25.29 8.91999 24C8.91999 22.71 7.68999 21.18 7.20999 20.71C7.17999 20.68 7.14999 20.64 7.11999 20.6C5.64999 18.65 5.88999 17.14 6.34999 16.22C7.46999 14 10.95 13 13.92 13C17.74 13 24.85 13 31.02 18.73C31.25 18.94 31.36 19.25 31.34 19.56C31.31 19.87 31.14 20.15 30.87 20.31C30.28 20.68 29.92 21.31 29.92 22V26C29.92 26.69 30.27 27.32 30.87 27.69C31.13 27.86 31.31 28.13 31.34 28.44C31.37 28.75 31.25 29.06 31.02 29.27C24.85 35 17.74 35 13.92 35ZM8.67999 28.65C8.02999 29.54 7.84999 30.29 8.14999 30.88C8.74999 32.09 11.23 32.99 13.92 32.99C17.53 32.99 23.45 32.99 28.83 28.52C28.25 27.82 27.92 26.93 27.92 25.99V21.99C27.92 21.05 28.25 20.16 28.83 19.46C23.44 15 17.52 15 13.92 15C11.23 15 8.74999 15.91 8.14999 17.11C7.84999 17.71 8.02999 18.46 8.67999 19.34C9.07999 19.75 10.92 21.77 10.92 23.99C10.92 26.21 9.07999 28.23 8.67999 28.64V28.65Z" fill="#2E1051"/><path d="M49.9199 35C46.0999 35 38.9899 35 32.8199 29.27C32.5899 29.06 32.4799 28.75 32.4999 28.44C32.5299 28.13 32.6999 27.85 32.9699 27.69C33.5599 27.32 33.9199 26.69 33.9199 26V22C33.9199 21.31 33.5699 20.68 32.9699 20.31C32.7099 20.14 32.5299 19.87 32.4999 19.56C32.4699 19.25 32.5899 18.94 32.8199 18.73C38.9899 13 46.0999 13 49.9199 13C52.8799 13 56.3699 14 57.4799 16.22C57.9399 17.14 58.1799 18.65 56.7199 20.6C56.6899 20.64 56.6599 20.67 56.6299 20.71C56.1599 21.19 54.9199 22.71 54.9199 24C54.9199 25.29 56.1499 26.82 56.6299 27.29C56.6599 27.32 56.6899 27.36 56.7199 27.4C58.1799 29.35 57.9399 30.86 57.4799 31.78C56.3699 34 52.8799 35 49.9199 35ZM35.0099 28.53C40.3899 33 46.3099 33 49.9199 33C52.6099 33 55.0899 32.09 55.6899 30.89C55.9899 30.29 55.8099 29.54 55.1599 28.66C54.7599 28.25 52.9199 26.23 52.9199 24.01C52.9199 21.79 54.7599 19.77 55.1599 19.36C55.8099 18.47 55.9899 17.72 55.6899 17.13C55.0899 15.92 52.6099 15.02 49.9199 15.02C46.3099 15.02 40.3899 15.02 35.0099 19.49C35.5899 20.19 35.9199 21.08 35.9199 22.02V26.02C35.9199 26.96 35.5899 27.85 35.0099 28.55V28.53Z" fill="#2E1051"/><path d="M44.92 29C48.92 29 50.92 30.27 50.92 30.27C51.88 30.82 52.2 32.05 51.65 33C51.1 33.96 48.92 34 48.92 34C44.97 33.96 38.89 33.55 33.5 28.54C37.92 30 40.92 29 44.92 29Z" fill="#592C87"/><g opacity="0.3"><path d="M44.92 31C48.92 31 50.92 32.27 50.92 32.27C51.24 32.45 51.48 32.71 51.65 33.01C52.2 32.05 51.87 30.83 50.92 30.28C50.92 30.28 48.92 29.01 44.92 29.01C40.92 29.01 37.92 30.01 33.5 28.55C34.73 29.69 36 30.59 37.27 31.3C39.87 31.49 42.16 31.01 44.92 31.01V31Z" fill="#2E1051"/></g><path d="M14.92 34.9999C14.43 34.9999 12.11 34.8799 11.31 33.4999C10.48 32.0699 10.98 30.2299 12.41 29.3999C12.47 29.3599 14.67 27.9999 18.91 27.9999C20.13 27.9999 21.25 28.0899 22.34 28.1799C24.89 28.3899 27.1 28.5599 30.02 27.5899C30.46 27.4399 30.96 27.6299 31.19 28.0299C31.43 28.4399 31.35 28.9499 31.01 29.2699C25.63 34.2599 19.58 34.9499 14.92 34.9899V34.9999ZM18.91 29.9999C15.3 29.9999 13.45 31.0999 13.44 31.1099C12.93 31.3999 12.77 32.0199 13.05 32.4899C13.18 32.6999 14.07 32.9699 14.94 32.9899C18.46 32.9599 22.44 32.5599 26.31 30.2999C24.86 30.3699 23.51 30.2699 22.19 30.1599C21.15 30.0799 20.06 29.9899 18.92 29.9899L18.91 29.9999Z" fill="#2E1051"/><path d="M48.9401 35C44.2501 34.96 38.2001 34.27 32.8201 29.28C32.4801 28.96 32.4001 28.44 32.6401 28.04C32.8801 27.63 33.3701 27.45 33.8101 27.6C36.7301 28.57 38.9401 28.39 41.4901 28.19C42.5701 28.1 43.6901 28.01 44.9201 28.01C49.1601 28.01 51.3601 29.37 51.4601 29.43C52.1201 29.81 52.6201 30.46 52.8201 31.23C53.0301 32 52.9201 32.81 52.5201 33.51C51.7301 34.89 49.4001 35 48.9401 35.01V35ZM37.5301 30.31C41.4001 32.57 45.3901 32.97 48.9301 33C49.7601 32.98 50.6601 32.71 50.7901 32.5C50.9201 32.27 50.9601 32 50.8901 31.74C50.8201 31.48 50.6501 31.27 50.4201 31.13C50.3701 31.1 48.5301 30 44.9201 30C43.7801 30 42.7001 30.09 41.6501 30.17C40.3301 30.28 38.9801 30.38 37.5301 30.31Z" fill="#2E1051"/><path d="M34.9199 23C34.9199 24.1 39.8199 25 40.9199 25C42.0199 25 42.9199 24.1 42.9199 23C42.9199 21.9 42.0199 21 40.9199 21C39.8199 21 34.9199 21.9 34.9199 23Z" fill="#DE1C85"/><g opacity="0.3"><path d="M36.2099 24C37.7399 23.4 40.1799 23 40.9199 23C41.6599 23 42.2999 23.4 42.6399 24C42.8099 23.7 42.9199 23.37 42.9199 23C42.9199 21.9 42.0199 21 40.9199 21C39.8199 21 34.9199 21.9 34.9199 23C34.9199 23.36 35.4599 23.71 36.2099 24Z" fill="#2E1051"/></g><path d="M28.9199 23C28.9199 24.1 24.0199 25 22.9199 25C21.8199 25 20.9199 24.1 20.9199 23C20.9199 21.9 21.8199 21 22.9199 21C24.0199 21 28.9199 21.9 28.9199 23Z" fill="#DE1C85"/><g opacity="0.3"><path d="M22.9199 23C23.6599 23 26.0999 23.4 27.6299 24C28.3799 23.71 28.9199 23.36 28.9199 23C28.9199 21.9 24.0199 21 22.9199 21C21.8199 21 20.9199 21.9 20.9199 23C20.9199 23.37 21.0299 23.7 21.1999 24C21.5499 23.4 22.1799 23 22.9199 23Z" fill="#592C87"/></g><path d="M22.9199 26C21.2699 26 19.9199 24.65 19.9199 23C19.9199 21.35 21.2699 20 22.9199 20C22.9899 20 29.9199 20.51 29.9199 23C29.9199 25.49 22.9899 26 22.9199 26ZM22.9199 22C22.3699 22 21.9199 22.45 21.9199 23C21.9199 23.55 22.3699 24 22.9199 24C23.8599 24 26.3099 23.48 27.4599 23C26.2999 22.52 23.8599 22 22.9199 22Z" fill="#2E1051"/><path d="M40.9199 26C40.8499 26 33.9199 25.49 33.9199 23C33.9199 20.51 40.8499 20 40.9199 20C42.5699 20 43.9199 21.35 43.9199 23C43.9199 24.65 42.5699 26 40.9199 26ZM36.3799 23C37.5399 23.48 39.9799 24 40.9199 24C41.4699 24 41.9199 23.55 41.9199 23C41.9199 22.45 41.4699 22 40.9199 22C39.9799 22 37.5299 22.52 36.3799 23Z" fill="#2E1051"/><path d="M34.9199 26C34.9199 27.66 33.5799 29 31.9199 29C30.2599 29 28.9199 27.66 28.9199 26V22C28.9199 20.34 30.2599 19 31.9199 19C33.5799 19 34.9199 20.34 34.9199 22V26Z" fill="#DE1C85"/><g opacity="0.3"><path d="M31.9199 19C30.2599 19 28.9199 20.34 28.9199 22V25C28.9199 23.34 30.2599 22 31.9199 22C33.5799 22 34.9199 23.34 34.9199 25V22C34.9199 20.34 33.5799 19 31.9199 19Z" fill="white"/></g><path d="M31.9199 30.01C29.7099 30.01 27.9199 28.22 27.9199 26.01V22.01C27.9199 19.8 29.7099 18.01 31.9199 18.01C34.1299 18.01 35.9199 19.8 35.9199 22.01V26.01C35.9199 28.22 34.1299 30.01 31.9199 30.01ZM31.9199 20.01C30.8199 20.01 29.9199 20.91 29.9199 22.01V26.01C29.9199 27.11 30.8199 28.01 31.9199 28.01C33.0199 28.01 33.9199 27.11 33.9199 26.01V22.01C33.9199 20.91 33.0199 20.01 31.9199 20.01Z" fill="#2E1051"/></svg>